<svg width="39" height="37" viewBox="0 0 39 37" fill="none" xmlns="http://www.w3.org/2000/svg">
<path d="M6.89869 1.37159C12.6803 0.639097 26.1948 0.492592 34 5.76654C34.3613 6.13276 34.2206 7.99573 33.3534 8.87472C32.6185 9.61953 30.5966 6.79871 22.5 5.2666C22.3794 5.24378 21.1868 5.18514 21.0638 5.1629C20.7123 5.09932 20.7165 5.10572 20.3451 5.04733C19.9929 4.99195 17.8705 4.81661 17.5 4.76654C14.0358 4.29849 11.5211 4.1987 6.25208 4.47977C5.52938 4.11357 5.16421 2.25063 6.89869 1.37159Z" fill="#2DB95C"/>
<path d="M17.5 4.76654L7.49978 17.7665L8.41994 18.7665L9.99971 19.7665C17.2267 9.43239 22.0796 5.28208 20.3451 5.04733C19.9929 4.99195 17.8705 4.81661 17.5 4.76654Z" fill="#2DB95C"/>
<path d="M21.0638 5.1629L26.5 18.7665L28.5 17.7665C25.6813 7.65088 23.248 5.40022 22.5 5.2666C22.3794 5.24378 21.1868 5.18514 21.0638 5.1629Z" fill="#2DB95C"/>
<path d="M17.5 4.76654C14.0358 4.29849 11.5211 4.1987 6.25208 4.47977C5.52938 4.11357 5.16421 2.25063 6.89869 1.37159C12.6803 0.639097 26.1948 0.492592 34 5.76654C34.3613 6.13276 34.2206 7.99573 33.3534 8.87472C32.6185 9.61953 30.5966 6.79871 22.5 5.2666M17.5 4.76654C17.8705 4.81661 19.9929 4.99195 20.3451 5.04733M17.5 4.76654L7.49978 17.7665L8.41994 18.7665L9.99971 19.7665C17.2267 9.43239 22.0796 5.28208 20.3451 5.04733M20.3451 5.04733C20.7165 5.10572 20.7123 5.09932 21.0638 5.1629M21.0638 5.1629L26.5 18.7665L28.5 17.7665C25.6813 7.65088 23.248 5.40022 22.5 5.2666M21.0638 5.1629C21.1868 5.18514 22.3794 5.24378 22.5 5.2666" stroke="#2DB95C" stroke-width="0.5"/>
<path d="M29.5 15.7666C26.6667 15.5999 19.5999 17.6666 19.9999 25.2666C20.3999 32.8666 26.4999 36.0999 28.9999 35.7666C31.8332 35.9333 38.8 32.5666 38 25.7666C37 17.2666 33 15.7666 29.5 15.7666Z" fill="#F91F4B"/>
<path d="M3.5 18.7667C0.500004 20.7667 -1.01394 35.2666 7.99994 35.2666C14 35.2665 16.5 34.1667 16.5 34C19 32 22.2 15.9667 11 16.7667C9.66662 16.7667 5.9 17.1667 3.5 18.7667Z" fill="#F91F4B"/>
<path d="M29.5 15.7666C26.6667 15.5999 19.5999 17.6666 19.9999 25.2666C20.3999 32.8666 26.4999 36.0999 28.9999 35.7666C31.8332 35.9333 38.8 32.5666 38 25.7666C37 17.2666 33 15.7666 29.5 15.7666Z" stroke="#F91F4B" stroke-width="0.5"/>
<path d="M3.5 18.7667C0.500004 20.7667 -1.01394 35.2666 7.99994 35.2666C14 35.2665 16.5 34.1667 16.5 34C19 32 22.2 15.9667 11 16.7667C9.66662 16.7667 5.9 17.1667 3.5 18.7667Z" stroke="#F91F4B" stroke-width="0.5"/>
</svg>
